<?xml version="1.0" standalone="no"?>
<!DOCTYPE svg PUBLIC "-//W3C//DTD SVG 20010904//EN"
 "http://www.w3.org/TR/2001/REC-SVG-20010904/DTD/svg10.dtd">
<svg version="1.0" xmlns="http://www.w3.org/2000/svg"
 width="260.000000pt" height="260.000000pt" viewBox="0 0 260.000000 260.000000"
 preserveAspectRatio="xMidYMid meet">
<metadata>
Created by potrace 1.11, written by Peter Selinger 2001-2013
</metadata>
<g transform="translate(0.000000,260.000000) scale(0.100000,-0.100000)"
fill="#000000" stroke="none">
<path d="M576 2291 c-5 -10 0 -70 7 -77 4 -4 65 -6 136 -5 97 1 130 -2 132
-11 3 -7 4 -185 4 -395 l-1 -383 51 0 50 0 1 393 0 392 130 1 c72 0 135 3 140
7 5 3 9 18 8 34 -1 15 -3 33 -3 40 -1 9 -84 11 -326 11 -179 0 -327 -4 -329
-7z"/>
<path d="M1359 2276 c-4 -103 0 -572 5 -609 24 -156 127 -244 300 -254 178
-11 307 67 350 212 11 35 15 122 16 359 l1 313 -51 2 c-41 0 -50 -3 -51 -17 0
-9 -2 -154 -3 -322 -3 -340 -5 -351 -71 -408 -45 -40 -71 -47 -170 -47 -70 0
-86 4 -128 28 -31 18 -55 42 -70 70 -21 41 -22 52 -25 368 l-3 326 -50 0 c-43
0 -49 -2 -50 -21z"/>
<path d="M630 1254 c0 -50 -20 -45 173 -46 l107 0 0 -394 0 -394 50 0 50 0 2
393 3 392 95 2 c52 1 114 2 138 2 l42 1 0 44 0 44 -330 0 -330 0 0 -44z"/>
<path d="M1312 1251 l3 -45 138 2 137 2 0 -395 0 -395 50 0 50 0 0 393 0 394
98 0 c53 1 116 1 140 2 l42 1 0 44 0 44 -330 0 -331 -1 3 -46z"/>
</g>
</svg>
